PathFileType	4	(X/Y/Z)	/Users/itak/Documents/Research/Walk-IL/dataset/trc/00384_00012.trc
DataRate	CameraRate	NumFrames	NumMarkers	Units	OrigDataRate	OrigDataStartFrame	OrigNumFrames
100.000000	100.000000	4	55	mm	100.000000	0	557
Frame#	Time	RPSI			LPSI			L3			STRN			T10			C7			CLAV			RBAK			LBAK			LSHO			LUPA			LAEL			LAOL			LWTS			LWPS			LFRA			LIFD			LHPS			LHTS			RSHO			RUPA			RAEL			RAOL			RWPS			RFRA			RIFD			RHPS			RBHD			LFHD			RFHD			LBHD			LHIP			RHIP			RASI			LASI			LKNE			LTHI			LANK			LTIP			LTOE			LMT1			LMT5			LHEE			RKNE			RTHI			RANK			RTIP			RTOE			RMT1			RMT5			RHEE			RHTS			RWTS			*53			*54			
		X1	Y1	Z1	X2	Y2	Z2	X3	Y3	Z3	X4	Y4	Z4	X5	Y5	Z5	X6	Y6	Z6	X7	Y7	Z7	X8	Y8	Z8	X9	Y9	Z9	X10	Y10	Z10	X11	Y11	Z11	X12	Y12	Z12	X13	Y13	Z13	X14	Y14	Z14	X15	Y15	Z15	X16	Y16	Z16	X17	Y17	Z17	X18	Y18	Z18	X19	Y19	Z19	X20	Y20	Z20	X21	Y21	Z21	X22	Y22	Z22	X23	Y23	Z23	X24	Y24	Z24	X25	Y25	Z25	X26	Y26	Z26	X27	Y27	Z27	X28	Y28	Z28	X29	Y29	Z29	X30	Y30	Z30	X31	Y31	Z31	X32	Y32	Z32	X33	Y33	Z33	X34	Y34	Z34	X35	Y35	Z35	X36	Y36	Z36	X37	Y37	Z37	X38	Y38	Z38	X39	Y39	Z39	X40	Y40	Z40	X41	Y41	Z41	X42	Y42	Z42	X43	Y43	Z43	X44	Y44	Z44	X45	Y45	Z45	X46	Y46	Z46	X47	Y47	Z47	X48	Y48	Z48	X49	Y49	Z49	X50	Y50	Z50	X51	Y51	Z51	X52	Y52	Z52	X53	Y53	Z53	X54	Y54	Z54	X55	Y55	Z55	

1	0	-1589.203491210938	992.7294311523438	110.779541015625	-1601.958251953125	984.6121215820312	-20.40074348449707	-1595.192138671875	1057.398803710938	48.05310821533203	-1361.994750976562	1222.65380859375	41.60150909423828	-1607.869140625	1160.6416015625	44.88872146606445	-1579.73388671875	1411.182250976562	36.75752639770508	-1420.103515625	1339.900146484375	43.16801452636719	-1616.047241210938	1261.917846679688	100.0119476318359	-1591.396484375	1375.764038085938	-66.87660217285156	-1506.096801757812	1397.364379882812	-116.2396926879883	-1523.91259765625	1281.182250976562	-189.3984527587891	-1489.78564453125	1086.836669921875	-218.7677001953125	-1547.11962890625	1059.767700195312	-161.8218383789062	-1379.851318359375	883.4322509765625	-166.2229614257812	-1418.93798828125	866.8538818359375	-235.875244140625	-1460.538208007812	985.3360595703125	-227.3992462158203	-1360.825439453125	706.8294677734375	-167.4817504882812	-1393.9609375	783.4219970703125	-226.8240203857422	-1345.921630859375	790.7496948242188	-184.9889831542969	-1526.076416015625	1390.532470703125	194.38720703125	-1540.102172851562	1324.429077148438	251.8367462158203	-1524.247314453125	1064.604248046875	298.9839782714844	-1542.716186523438	1050.25927734375	206.8975067138672	-1425.26123046875	848.277099609375	339.3121948242188	-1495.020385742188	1001.978332519531	318.3644104003906	-1375.126708984375	686.3665771484375	288.4026489257812	-1414.907836914062	758.6806030273438	342.7051086425781	-1560.099365234375	1597.240234375	118.8286743164062	-1406.550170898438	1617.021240234375	-6.201281547546387	-1429.282836914062	1620.173828125	114.435302734375	-1547.594116210938	1589.37646484375	-42.64262390136719	-1521.433349609375	973.0974731445312	-138.2862548828125	-1500.439697265625	966.3814086914062	219.4210510253906	-1371.135986328125	976.295654296875	157.1454467773438	-1407.895751953125	968.090576171875	-105.2391357421875	-1481.833374023438	479.3816223144531	-127.2184677124023	-1487.395629882812	622.258544921875	-137.0399475097656	-1566.498779296875	44.25065612792969	-85.66182708740234	-1526.547485351562	247.4371032714844	-119.6344528198242	-1350.330078125	46.65379333496094	-21.5639591217041	-1431.576293945312	46.24340438842773	7.551479816436768	-1438.28857421875	42.70345306396484	-97.25889587402344	-1602.910034179688	41.94812774658203	-27.63771820068359	-1479.847045898438	477.7098388671875	194.8213195800781	-1429.145751953125	739.0554809570312	214.7480621337891	-1529.078247070312	55.39398574829102	154.6116180419922	-1474.098510742188	351.9046630859375	178.7978515625	-1354.004272460938	42.28691864013672	82.90968322753906	-1429.313232421875	46.67469024658203	57.22861099243164	-1445.146118164062	46.64730072021484	156.7817993164062	-1604.023193359375	44.79750442504883	103.9147033691406	-1359.1220703125	755.5267333984375	303.8335266113281	-1383.194213867188	859.0491943359375	278.8054504394531	nan	nan	nan	nan	nan	nan	
2	0.01	-1589.462036132812	992.6939086914062	110.6681823730469	-1602.105346679688	984.560791015625	-20.44420433044434	-1595.451538085938	1057.41357421875	47.94710540771484	-1362.281372070312	1222.655517578125	41.66335296630859	-1608.30078125	1160.664916992188	44.70984649658203	-1580.043334960938	1411.242797851562	36.61004257202148	-1420.271362304688	1339.891967773438	43.17611694335938	-1616.357055664062	1261.960815429688	99.96745300292969	-1591.717529296875	1375.768310546875	-66.97975921630859	-1506.306030273438	1397.348022460938	-116.2801971435547	-1524.128173828125	1281.129516601562	-189.4172973632812	-1490.070678710938	1086.77978515625	-218.6945037841797	-1547.175048828125	1059.73095703125	-161.6283264160156	-1380.149536132812	883.3366088867188	-166.086181640625	-1419.237426757812	866.7494506835938	-235.7188568115234	-1460.763061523438	985.2420654296875	-227.251953125	-1361.183837890625	706.791259765625	-167.2934265136719	-1394.174438476562	783.3043212890625	-226.6252899169922	-1346.216796875	790.68408203125	-184.9352111816406	-1526.391479492188	1390.567138671875	194.3251037597656	-1540.40234375	1324.383544921875	251.7879028320312	-1524.595825195312	1064.566284179688	298.7555236816406	-1542.947143554688	1050.285522460938	206.7071838378906	-1425.795166015625	848.08203125	339.0481262207031	-1495.320556640625	1001.944763183594	318.1170043945312	-1375.915283203125	686.1790771484375	288.110595703125	-1415.671630859375	758.4495849609375	342.370849609375	-1560.35107421875	1597.281982421875	118.7624130249023	-1406.557739257812	1616.969482421875	-6.100225448608398	-1429.40478515625	1620.105834960938	114.5230102539062	-1547.684692382812	1589.439331054688	-42.69949722290039	-1521.636840820312	973.0909423828125	-138.36767578125	-1500.791015625	966.3427124023438	219.3349304199219	-1371.26220703125	976.3165283203125	157.1057739257812	-1408.154418945312	968.0433349609375	-105.1918258666992	-1481.8134765625	479.3821716308594	-127.2259674072266	-1487.422973632812	622.249267578125	-137.0723876953125	-1566.4716796875	44.2127799987793	-85.64254760742188	-1526.523559570312	247.4183959960938	-119.6376724243164	-1350.30908203125	46.64847183227539	-21.5667610168457	-1431.511352539062	46.28557968139648	7.545172214508057	-1438.291748046875	42.70862579345703	-97.25155639648438	-1602.909545898438	41.93396759033203	-27.6500186920166	-1479.8896484375	477.7178649902344	194.8105163574219	-1429.166259765625	739.068359375	214.7846832275391	-1529.097778320312	55.39410781860352	154.6125335693359	-1474.11279296875	351.9143371582031	178.7903594970703	-1354.026489257812	42.29405212402344	82.90800476074219	-1429.307739257812	46.68231582641602	57.26570129394531	-1445.149169921875	46.65505218505859	156.7815246582031	-1603.960815429688	44.74776077270508	103.9637069702148	-1360.104370117188	755.266357421875	303.5581359863281	-1383.8056640625	858.7805786132812	278.5629577636719	nan	nan	nan	nan	nan	nan	
3	0.02	-1589.7734375	992.638427734375	110.5514450073242	-1602.320556640625	984.500732421875	-20.51383018493652	-1595.76708984375	1057.423950195312	47.82710647583008	-1362.62646484375	1222.658447265625	41.730224609375	-1608.794555664062	1160.688598632812	44.51587295532227	-1580.427612304688	1411.314575195312	36.42942810058594	-1420.500122070312	1339.879760742188	43.18114471435547	-1616.75537109375	1262.01953125	99.90338897705078	-1592.08935546875	1375.771362304688	-67.09370422363281	-1506.55615234375	1397.329711914062	-116.3252792358398	-1524.407104492188	1281.06689453125	-189.4477233886719	-1490.420288085938	1086.707641601562	-218.6070556640625	-1547.283325195312	1059.68994140625	-161.4122161865234	-1380.541259765625	883.2152099609375	-165.9088134765625	-1419.619384765625	866.6211547851562	-235.5244293212891	-1461.0498046875	985.1232299804688	-227.0747375488281	-1361.62841796875	706.7012329101562	-167.0614929199219	-1394.49267578125	783.158203125	-226.3820343017578	-1346.658081054688	790.5698852539062	-184.8533172607422	-1526.781616210938	1390.608276367188	194.2541656494141	-1540.767456054688	1324.337036132812	251.7318420410156	-1525.023193359375	1064.528198242188	298.48779296875	-1543.28271484375	1050.320190429688	206.4507751464844	-1426.458251953125	847.8468627929688	338.7056579589844	-1495.714965820312	1001.907897949219	317.8136596679688	-1376.923583984375	685.9515380859375	287.737548828125	-1416.568481445312	758.165283203125	341.9366149902344	-1560.69189453125	1597.338256835938	118.6701583862305	-1406.574462890625	1616.904541015625	-5.975196838378906	-1429.560546875	1620.020751953125	114.6204986572266	-1547.800170898438	1589.520629882812	-42.77934265136719	-1521.87158203125	973.0809326171875	-138.4544067382812	-1501.2119140625	966.2809448242188	219.2370147705078	-1371.44189453125	976.3321533203125	157.0507965087891	-1408.454467773438	968.027099609375	-105.134391784668	-1481.78076171875	479.3819885253906	-127.2347030639648	-1487.454345703125	622.2396850585938	-137.1093902587891	-1566.442016601562	44.16707992553711	-85.61863708496094	-1526.492431640625	247.3960571289062	-119.6417083740234	-1350.289916992188	46.64532089233398	-21.56685256958008	-1431.463256835938	46.31769943237305	7.539531707763672	-1438.296508789062	42.71429443359375	-97.24308013916016	-1602.91162109375	41.92049789428711	-27.66402053833008	-1479.945678710938	477.7269897460938	194.7924652099609	-1429.237915039062	739.0955200195312	214.8216247558594	-1529.122802734375	55.39958572387695	154.6107482910156	-1474.115600585938	351.9301452636719	178.7772216796875	-1354.0546875	42.30411529541016	82.90582275390625	-1429.297119140625	46.69415664672852	57.30992126464844	-1445.153076171875	46.66571426391602	156.7805633544922	-1603.917236328125	44.71080017089844	104.0000991821289	-1361.328247070312	754.968505859375	303.1851806640625	-1384.554565429688	858.4793090820312	278.2484130859375	nan	nan	nan	nan	nan	nan	
4	0.03	-1590.118896484375	992.5596923828125	110.4452743530273	-1602.6025390625	984.4359130859375	-20.60917663574219	-1596.124389648438	1057.427368164062	47.70365524291992	-1363.016235351562	1222.662841796875	41.79296112060547	-1609.312255859375	1160.710083007812	44.32634735107422	-1580.8662109375	1411.390380859375	36.2295036315918	-1420.789672851562	1339.863647460938	43.18025970458984	-1617.22265625	1262.08984375	99.81951141357422	-1592.483642578125	1375.772705078125	-67.2081298828125	-1506.835205078125	1397.311767578125	-116.3733825683594	-1524.739379882812	1280.998901367188	-189.4915618896484	-1490.811645507812	1086.623291015625	-218.5103607177734	-1547.451293945312	1059.648071289062	-161.1929931640625	-1381.015991210938	883.0716552734375	-165.6992950439453	-1420.070068359375	866.4743041992188	-235.2995147705078	-1461.38818359375	984.9857177734375	-226.8791351318359	-1362.150146484375	706.5486450195312	-166.7904968261719	-1394.92138671875	782.9888305664062	-226.1058044433594	-1347.260131835938	790.4014282226562	-184.7339782714844	-1527.226684570312	1390.653198242188	194.1801147460938	-1541.177124023438	1324.296875	251.6715393066406	-1525.505737304688	1064.495361328125	298.2010498046875	-1543.7197265625	1050.365600585938	206.138916015625	-1427.21923828125	847.5868530273438	338.2974243164062	-1496.192993164062	1001.870910644531	317.4728698730469	-1378.10888671875	685.6950073242188	287.295166015625	-1417.5390625	757.8472290039062	341.4255981445312	-1561.110107421875	1597.407592773438	118.5528869628906	-1406.60546875	1616.82958984375	-5.832895278930664	-1429.747314453125	1619.922973632812	114.7182922363281	-1547.937133789062	1589.617431640625	-42.88273620605469	-1522.119140625	973.0665283203125	-138.5363616943359	-1501.66650390625	966.1959838867188	219.1381378173828	-1371.679321289062	976.3388061523438	156.9813232421875	-1408.759643554688	968.0671997070312	-105.069450378418	-1481.733642578125	479.3809814453125	-127.2439117431641	-1487.487670898438	622.2308959960938	-137.1478424072266	-1566.414306640625	44.11828231811523	-85.59365081787109	-1526.455078125	247.3715057373047	-119.6462326049805	-1350.281494140625	46.64595794677734	-21.55953979492188	-1431.432861328125	46.33749389648438	7.53569507598877	-1438.303588867188	42.72082138061523	-97.23458862304688	-1602.916870117188	41.90901565551758	-27.67879104614258	-1480.008666992188	477.7369689941406	194.7684631347656	-1429.373779296875	739.1388549804688	214.8548431396484	-1529.152099609375	55.41101837158203	154.6054229736328	-1474.102294921875	351.9514465332031	178.7565307617188	-1354.08642578125	42.31756973266602	82.90329742431641	-1429.28369140625	46.70986557006836	57.35559463500977	-1445.15771484375	46.67865753173828	156.7782745361328	-1603.898681640625	44.69224548339844	104.0185775756836	-1362.679565429688	754.6578979492188	302.721435546875	-1385.3994140625	858.171630859375	277.8759460449219	nan	nan	nan	nan	nan	nan	
